<svg width="15" height="15" viewBox="0 0 15 15" fill="none" xmlns="http://www.w3.org/2000/svg">
    <path d="M14.8629 12.0514L10.3123 7.50076L14.8629 2.95013C14.9501 2.86187 14.999 2.7428 14.999 2.61873C14.999 2.49466 14.9501 2.37558 14.8629 2.28732L12.7132 0.137633C12.6698 0.0940088 12.6181 0.0593947 12.5612 0.0357763C12.5044 0.0121579 12.4434 0 12.3818 0C12.3202 0 12.2593 0.0121579 12.2024 0.0357763C12.1455 0.0593947 12.0939 0.0940088 12.0504 0.137633L7.49978 4.68826L2.94916 0.137633C2.86125 0.049756 2.74205 0.000389455 2.61775 0.000389455C2.49345 0.000389455 2.37425 0.049756 2.28634 0.137633L0.136657 2.28732C0.0930322 2.33078 0.0584181 2.38243 0.0347997 2.4393C0.0111813 2.49617 -0.000976562 2.55715 -0.000976562 2.61873C-0.000976562 2.68031 0.0111813 2.74128 0.0347997 2.79815C0.0584181 2.85502 0.0930322 2.90667 0.136657 2.95013L4.68728 7.50076L0.136657 12.0514C0.0487795 12.1393 -0.000587107 12.2585 -0.000587107 12.3828C-0.000587107 12.5071 0.0487795 12.6263 0.136657 12.7142L2.28634 14.8639C2.32981 14.9075 2.38145 14.9421 2.43833 14.9657C2.4952 14.9894 2.55617 15.0015 2.61775 15.0015C2.67933 15.0015 2.7403 14.9894 2.79718 14.9657C2.85405 14.9421 2.90569 14.9075 2.94916 14.8639L7.49978 10.3133L12.0504 14.8639C12.1383 14.9518 12.2575 15.0011 12.3818 15.0011C12.5061 15.0011 12.6253 14.9518 12.7132 14.8639L14.8629 12.7142C14.9065 12.6707 14.9411 12.6191 14.9648 12.5622C14.9884 12.5053 15.0005 12.4444 15.0005 12.3828C15.0005 12.3212 14.9884 12.2602 14.9648 12.2034C14.9411 12.1465 14.9065 12.0948 14.8629 12.0514Z" fill="#F24E1E" />
</svg>
    