<svg width="20" height="12" viewBox="0 0 20 12" fill="none" xmlns="http://www.w3.org/2000/svg">
    <path d="M12.9974 5.99788C12.9974 7.58673 11.653 8.87475 9.99457 8.87475C8.33617 8.87475 6.99177 7.58673 6.99177 5.99788C6.99177 4.40901 8.33617 3.12101 9.99457 3.12101C11.653 3.121 12.9974 4.40903 12.9974 5.99788ZM10 0.0078125C8.28292 0.0154292 6.5031 0.433446 4.81827 1.23376C3.5673 1.85246 2.34817 2.72536 1.2899 3.80278C0.770133 4.35276 0.107183 5.14913 0 5.99881C0.0126667 6.73483 0.802167 7.6433 1.2899 8.19486C2.28228 9.22996 3.46967 10.0785 4.81827 10.7645C6.38945 11.527 8.12853 11.966 10 11.9905C11.7187 11.9827 13.4981 11.5599 15.1811 10.7645C16.4321 10.1458 17.6518 9.27228 18.7101 8.19486C19.2299 7.64488 19.8928 6.8485 20 5.99881C19.9873 5.2628 19.1978 4.3543 18.7101 3.80275C17.7177 2.76765 16.5297 1.91976 15.1811 1.23373C13.6107 0.471796 11.8674 0.0357958 10 0.0078125ZM9.99873 1.49528C12.6007 1.49528 14.71 3.51185 14.71 5.99946C14.71 8.48706 12.6007 10.5036 9.99873 10.5036C7.39675 10.5036 5.28748 8.48705 5.28748 5.99946C5.28748 3.51185 7.39675 1.49528 9.99873 1.49528Z" fill="white" />
</svg>
    