<svg width="15" height="13" viewBox="0 0 15 13" fill="none" xmlns="http://www.w3.org/2000/svg">
    <path d="M13.7501 2.18354C13.1917 1.0377 11.5834 0.100202 9.71257 0.646036C8.81859 0.90426 8.03862 1.45803 7.50007 2.21687C6.96152 1.45803 6.18154 0.90426 5.28757 0.646036C3.41257 0.108536 1.8084 1.0377 1.25007 2.18354C0.466733 3.7877 0.791733 5.59187 2.21673 7.54604C3.3334 9.0752 4.92923 10.6252 7.2459 12.4252C7.31911 12.4823 7.4093 12.5133 7.50215 12.5133C7.595 12.5133 7.68519 12.4823 7.7584 12.4252C10.0709 10.6294 11.6709 9.09187 12.7876 7.54604C14.2084 5.59187 14.5334 3.7877 13.7501 2.18354Z" fill="white" />
</svg>
    