<svg width="18" height="17" viewBox="0 0 18 17" fill="none" xmlns="http://www.w3.org/2000/svg">
    <path d="M0 7.44573C0 11.558 3.27025 14.892 7.30453 14.892C8.73796 14.892 10.0751 14.4713 11.2033 13.7441C11.2056 13.7495 11.2076 13.7547 11.21 13.7601L14.388 17L17.088 14.2478L13.7945 10.8911C13.7898 10.8921 13.7852 10.8935 13.7805 10.8945C14.3101 9.86344 14.6096 8.69018 14.6096 7.44572C14.6096 3.33342 11.3389 0 7.30456 0C3.27025 4.3869e-05 0 3.33348 0 7.44573ZM3.24497 7.44573C3.24497 5.16044 5.06255 3.3083 7.30453 3.3083C9.5465 3.3083 11.3641 5.16044 11.3641 7.44573C11.3641 9.73104 9.5465 11.5838 7.30453 11.5838C5.06255 11.5838 3.24497 9.73105 3.24497 7.44573Z" fill="black" fill-opacity="0.5" />
</svg>
    